# xmcd CD database file
#
# Track frame offsets:
#	150
#	19557
#	39537
#	52607
#	67257
#	80737
#	95270
#	108990
#	122377
#	134595
#	149902
#	162365
#	173865
#	186950
#	202842
#	217010
#	231855
#	244420
#	257745
#	270712
#	283972
#	296212
#	309842
#	321700
#
# Disc length: 4464 seconds
#
# Revision: 0
# Processed by: cddbd v1.4PL0 Copyright (c) Steve Scherf et al.
# Submitted via: CDex 1.50Beta7
#
DISCID=79116e18
DTITLE=Wild Bill Davison - The Commodore Master Takes
DYEAR=1943
DGENRE=Jazz
TTITLE0=That's A-Plenty
TTITLE1=Panama
TTITLE2=Riverboat Shuffle
TTITLE3=Muskrat Ramble
TTITLE4=Clarinet Marmalade
TTITLE5=Original Dixieland One-Step
TTITLE6=At the Jazz Band Ball
TTITLE7=Baby Won't You Please Come Home
TTITLE8=I Don't Stand a Ghost of a Chance with You
TTITLE9=Jazz Me Blues
TTITLE10=Little Girl
TTITLE11=Squeeze Me
TTITLE12=A Monday Date
TTITLE13=I'm Confessin' (That I Love You)
TTITLE14=Big Butter and Egg Man
TTITLE15=I Wish I Could Shimmy Like My Sister Kate
TTITLE16=Sensation Rag
TTITLE17=Who's Sorry Now?
TTITLE18=On the Alamo
TTITLE19=Someday, Sweetheart
TTITLE20=High Society
TTITLE21=Wrap Your Troubles in Dreams
TTITLE22=I'm Coming Virginia
TTITLE23=Wabash Blues
EXTD=YEAR: 1943
EXTT0=
EXTT1=
EXTT2=
EXTT3=
EXTT4=
EXTT5=
EXTT6=
EXTT7=
EXTT8=
EXTT9=
EXTT10=
EXTT11=
EXTT12=
EXTT13=
EXTT14=
EXTT15=
EXTT16=
EXTT17=
EXTT18=
EXTT19=
EXTT20=
EXTT21=
EXTT22=
EXTT23=
PLAYORDER=
